REM DIRINDEX 1\2\4\18,1\2\4\19,1\2\5\20,1\2\5\21,1\2\6\22,1\2\7\23,1\2\8\24,1\2\8\25,1\2\9\26,1\2\10\27,1\3\11\28,1\3\11\29,1\3\11\30,1\3\11\31,1\3\12\32,1\3\12\33,1\3\12\34,1\3\12\35,1\3\13\36,1\3\13\37,1\3\14\38,1\3\14\39,1\3\15\40,1\3\15\41,1\3\15\42,1\3\16\43,1\3\16\44,1\3\17\45,1\3\17\46
REM DIRNAME cjc023,folder01,folder02,folder03,folder04,folder05,folder06,folder07,folder08,folder09,folder10,folder11,folder12,folder13,folder14,folder15,folder16,folder17,folder18,folder19,folder20,folder21,folder22,folder23,folder24,folder25,folder26,folder27,folder28,folder29,folder30,folder31,folder32,folder33,folder34,folder35,folder36,folder37,folder38,folder39,folder40,folder41,folder42,folder43,folder44,folder45
TITLE ""
FILE "10.mp3" MP3
  TRACK 01 AUDIO
    TITLE "0:"
    INDEX 01 00:00:00
  TRACK 02 AUDIO
    TITLE "37:cjc023_6060"
    INDEX 01 00:00:13
  TRACK 03 AUDIO
    TITLE "0:"
    INDEX 01 00:01:42
  TRACK 04 AUDIO
    TITLE "36:cjc023_6061"
    INDEX 01 00:01:66
  TRACK 05 AUDIO
    TITLE "0:"
    INDEX 01 00:03:55
  TRACK 06 AUDIO
    TITLE "37:cjc023_6062"
    INDEX 01 00:04:40
  TRACK 07 AUDIO
    TITLE "0:"
    INDEX 01 00:05:48
  TRACK 08 AUDIO
    TITLE "36:cjc023_6063"
    INDEX 01 00:05:71
  TRACK 09 AUDIO
    TITLE "0:"
    INDEX 01 00:07:56
  TRACK 10 AUDIO
    TITLE "37:cjc023_6064"
    INDEX 01 00:08:38
  TRACK 11 AUDIO
    TITLE "0:"
    INDEX 01 00:10:00
  TRACK 12 AUDIO
    TITLE "36:cjc023_6065"
    INDEX 01 00:10:23
  TRACK 13 AUDIO
    TITLE "0:"
    INDEX 01 00:12:05
  TRACK 14 AUDIO
    TITLE "37:cjc023_6066"
    INDEX 01 00:12:67
  TRACK 15 AUDIO
    TITLE "0:"
    INDEX 01 00:14:04
  TRACK 16 AUDIO
    TITLE "36:cjc023_6067"
    INDEX 01 00:14:29
  TRACK 17 AUDIO
    TITLE "0:"
    INDEX 01 00:16:51
  TRACK 18 AUDIO
    TITLE "37:cjc023_6068"
    INDEX 01 00:17:33
  TRACK 19 AUDIO
    TITLE "0:"
    INDEX 01 00:18:46
  TRACK 20 AUDIO
    TITLE "36:cjc023_6069"
    INDEX 01 00:18:68
  TRACK 21 AUDIO
    TITLE "0:"
    INDEX 01 00:20:55
  TRACK 22 AUDIO
    TITLE "37:cjc023_6070"
    INDEX 01 00:21:39
  TRACK 23 AUDIO
    TITLE "0:"
    INDEX 01 00:22:50
  TRACK 24 AUDIO
    TITLE "36:cjc023_6071"
    INDEX 01 00:22:74
  TRACK 25 AUDIO
    TITLE "0:"
    INDEX 01 00:25:07
  TRACK 26 AUDIO
    TITLE "37:cjc023_6072"
    INDEX 01 00:25:68
  TRACK 27 AUDIO
    TITLE "0:"
    INDEX 01 00:27:02
  TRACK 28 AUDIO
    TITLE "36:cjc023_6073"
    INDEX 01 00:27:24
  TRACK 29 AUDIO
    TITLE "0:"
    INDEX 01 00:28:72
  TRACK 30 AUDIO
    TITLE "37:cjc023_6074"
    INDEX 01 00:29:58
  TRACK 31 AUDIO
    TITLE "0:"
    INDEX 01 00:31:04
  TRACK 32 AUDIO
    TITLE "36:cjc023_6075"
    INDEX 01 00:31:27
  TRACK 33 AUDIO
    TITLE "0:"
    INDEX 01 00:33:01
  TRACK 34 AUDIO
    TITLE "37:cjc023_6076"
    INDEX 01 00:33:58
  TRACK 35 AUDIO
    TITLE "0:"
    INDEX 01 00:34:71
  TRACK 36 AUDIO
    TITLE "36:cjc023_6077"
    INDEX 01 00:35:19
  TRACK 37 AUDIO
    TITLE "0:"
    INDEX 01 00:37:10
  TRACK 38 AUDIO
    TITLE "37:cjc023_6078"
    INDEX 01 00:37:73
  TRACK 39 AUDIO
    TITLE "0:"
    INDEX 01 00:39:07
  TRACK 40 AUDIO
    TITLE "36:cjc023_6079"
    INDEX 01 00:39:31
  TRACK 41 AUDIO
    TITLE "0:"
    INDEX 01 00:41:24
  TRACK 42 AUDIO
    TITLE "37:cjc023_6080"
    INDEX 01 00:42:08
  TRACK 43 AUDIO
    TITLE "0:"
    INDEX 01 00:43:29
  TRACK 44 AUDIO
    TITLE "36:cjc023_6081"
    INDEX 01 00:43:54
  TRACK 45 AUDIO
    TITLE "0:"
    INDEX 01 00:45:30
  TRACK 46 AUDIO
    TITLE "37:cjc023_6082"
    INDEX 01 00:46:17
  TRACK 47 AUDIO
    TITLE "0:"
    INDEX 01 00:47:30
  TRACK 48 AUDIO
    TITLE "36:cjc023_6083"
    INDEX 01 00:47:54
  TRACK 49 AUDIO
    TITLE "0:"
    INDEX 01 00:49:31
  TRACK 50 AUDIO
    TITLE "37:cjc023_6084"
    INDEX 01 00:50:17
  TRACK 51 AUDIO
    TITLE "0:"
    INDEX 01 00:51:38
  TRACK 52 AUDIO
    TITLE "36:cjc023_6085"
    INDEX 01 00:51:65
  TRACK 53 AUDIO
    TITLE "0:"
    INDEX 01 00:54:03
  TRACK 54 AUDIO
    TITLE "37:cjc023_6086"
    INDEX 01 00:54:68
  TRACK 55 AUDIO
    TITLE "0:"
    INDEX 01 00:56:14
  TRACK 56 AUDIO
    TITLE "36:cjc023_6087"
    INDEX 01 00:56:41
  TRACK 57 AUDIO
    TITLE "0:"
    INDEX 01 00:58:36
  TRACK 58 AUDIO
    TITLE "37:cjc023_6088"
    INDEX 01 00:59:28
  TRACK 59 AUDIO
    TITLE "0:"
    INDEX 01 01:00:41
  TRACK 60 AUDIO
    TITLE "36:cjc023_6089"
    INDEX 01 01:00:60
  TRACK 61 AUDIO
    TITLE "0:"
    INDEX 01 01:02:73
  TRACK 62 AUDIO
    TITLE "37:cjc023_6090"
    INDEX 01 01:03:63
  TRACK 63 AUDIO
    TITLE "0:"
    INDEX 01 01:05:24
  TRACK 64 AUDIO
    TITLE "36:cjc023_6091"
    INDEX 01 01:05:46
  TRACK 65 AUDIO
    TITLE "0:"
    INDEX 01 01:06:43
  TRACK 66 AUDIO
    TITLE "37:cjc023_6092"
    INDEX 01 01:07:25
  TRACK 67 AUDIO
    TITLE "0:"
    INDEX 01 01:08:56
  TRACK 68 AUDIO
    TITLE "36:cjc023_6093"
    INDEX 01 01:09:05
  TRACK 69 AUDIO
    TITLE "0:"
    INDEX 01 01:10:16
  TRACK 70 AUDIO
    TITLE "37:cjc023_6094"
    INDEX 01 01:11:02
  TRACK 71 AUDIO
    TITLE "0:"
    INDEX 01 01:12:05
  TRACK 72 AUDIO
    TITLE "36:cjc023_6095"
    INDEX 01 01:12:28
  TRACK 73 AUDIO
    TITLE "0:"
    INDEX 01 01:13:44
  TRACK 74 AUDIO
    TITLE "37:cjc023_6096"
    INDEX 01 01:14:29
  TRACK 75 AUDIO
    TITLE "0:"
    INDEX 01 01:15:68
  TRACK 76 AUDIO
    TITLE "36:cjc023_6097"
    INDEX 01 01:16:16
  TRACK 77 AUDIO
    TITLE "0:"
    INDEX 01 01:17:16
  TRACK 78 AUDIO
    TITLE "37:cjc023_6098"
    INDEX 01 01:18:04
  TRACK 79 AUDIO
    TITLE "0:"
    INDEX 01 01:19:19
  TRACK 80 AUDIO
    TITLE "36:cjc023_6099"
    INDEX 01 01:19:40
  TRACK 81 AUDIO
    TITLE "0:"
    INDEX 01 01:21:00
  TRACK 82 AUDIO
    TITLE "37:cjc023_6100"
    INDEX 01 01:21:59
  TRACK 83 AUDIO
    TITLE "0:"
    INDEX 01 01:23:30
  TRACK 84 AUDIO
    TITLE "36:cjc023_6101"
    INDEX 01 01:23:52
  TRACK 85 AUDIO
    TITLE "0:"
    INDEX 01 01:25:25
  TRACK 86 AUDIO
    TITLE "37:cjc023_6102"
    INDEX 01 01:26:13
  TRACK 87 AUDIO
    TITLE "0:"
    INDEX 01 01:27:18
  TRACK 88 AUDIO
    TITLE "36:cjc023_6103"
    INDEX 01 01:27:44
  TRACK 89 AUDIO
    TITLE "0:"
    INDEX 01 01:28:63
  TRACK 90 AUDIO
    TITLE "37:cjc023_6104"
    INDEX 01 01:29:48
  TRACK 91 AUDIO
    TITLE "0:"
    INDEX 01 01:30:52
  TRACK 92 AUDIO
    TITLE "36:cjc023_6105"
    INDEX 01 01:31:06
  TRACK 93 AUDIO
    TITLE "0:"
    INDEX 01 01:32:27
  TRACK 94 AUDIO
    TITLE "37:cjc023_6106"
    INDEX 01 01:33:11
  TRACK 95 AUDIO
    TITLE "0:"
    INDEX 01 01:34:40
  TRACK 96 AUDIO
    TITLE "36:cjc023_6107"
    INDEX 01 01:34:69
  TRACK 97 AUDIO
    TITLE "0:"
    INDEX 01 01:36:19
  TRACK 98 AUDIO
    TITLE "37:cjc023_6108"
    INDEX 01 01:37:01
  TRACK 99 AUDIO
    TITLE "0:"
    INDEX 01 01:38:04
  TRACK 100 AUDIO
    TITLE "36:cjc023_6109"
    INDEX 01 01:38:34
  TRACK 101 AUDIO
    TITLE "0:"
    INDEX 01 01:39:70
  TRACK 102 AUDIO
    TITLE "37:cjc023_6110"
    INDEX 01 01:40:54
  TRACK 103 AUDIO
    TITLE "0:"
    INDEX 01 01:41:56
  TRACK 104 AUDIO
    TITLE "36:cjc023_6111"
    INDEX 01 01:42:04
  TRACK 105 AUDIO
    TITLE "0:"
    INDEX 01 01:43:09
  TRACK 106 AUDIO
    TITLE "37:cjc023_6112"
    INDEX 01 01:43:66
  TRACK 107 AUDIO
    TITLE "0:"
    INDEX 01 01:44:66
  TRACK 108 AUDIO
    TITLE "36:cjc023_6113"
    INDEX 01 01:45:18
  TRACK 109 AUDIO
    TITLE "0:"
    INDEX 01 01:46:37
  TRACK 110 AUDIO
    TITLE "37:cjc023_6114"
    INDEX 01 01:47:19
  TRACK 111 AUDIO
    TITLE "0:"
    INDEX 01 01:48:69
  TRACK 112 AUDIO
    TITLE "36:cjc023_6115"
    INDEX 01 01:49:12
  TRACK 113 AUDIO
    TITLE "0:"
    INDEX 01 01:50:27
  TRACK 114 AUDIO
    TITLE "37:cjc023_6116"
    INDEX 01 01:51:09
  TRACK 115 AUDIO
    TITLE "0:"
    INDEX 01 01:52:10
  TRACK 116 AUDIO
    TITLE "36:cjc023_6117"
    INDEX 01 01:52:34
  TRACK 117 AUDIO
    TITLE "0:"
    INDEX 01 01:53:47
  TRACK 118 AUDIO
    TITLE "37:cjc023_6118"
    INDEX 01 01:54:35
  TRACK 119 AUDIO
    TITLE "0:"
    INDEX 01 01:56:08
  TRACK 120 AUDIO
    TITLE "36:cjc023_6119"
    INDEX 01 01:56:30
  TRACK 121 AUDIO
    TITLE "0:"
    INDEX 01 01:57:66
  TRACK 122 AUDIO
    TITLE "37:cjc023_6120"
    INDEX 01 01:58:52
  TRACK 123 AUDIO
    TITLE "0:"
    INDEX 01 02:00:14
  TRACK 124 AUDIO
    TITLE "36:cjc023_6121"
    INDEX 01 02:00:35
  TRACK 125 AUDIO
    TITLE "0:"
    INDEX 01 02:01:68
  TRACK 126 AUDIO
    TITLE "37:cjc023_6122"
    INDEX 01 02:02:54
  TRACK 127 AUDIO
    TITLE "0:"
    INDEX 01 02:04:21
  TRACK 128 AUDIO
    TITLE "36:cjc023_6123"
    INDEX 01 02:04:43
  TRACK 129 AUDIO
    TITLE "0:"
    INDEX 01 02:05:42
  TRACK 130 AUDIO
    TITLE "37:cjc023_6124"
    INDEX 01 02:06:26
  TRACK 131 AUDIO
    TITLE "0:"
    INDEX 01 02:07:67
  TRACK 132 AUDIO
    TITLE "36:cjc023_6125"
    INDEX 01 02:08:19
  TRACK 133 AUDIO
    TITLE "0:"
    INDEX 01 02:09:19
  TRACK 134 AUDIO
    TITLE "37:cjc023_6126"
    INDEX 01 02:10:00
  TRACK 135 AUDIO
    TITLE "0:"
    INDEX 01 02:11:31
  TRACK 136 AUDIO
    TITLE "36:cjc023_6127"
    INDEX 01 02:11:55
  TRACK 137 AUDIO
    TITLE "0:"
    INDEX 01 02:13:50
  TRACK 138 AUDIO
    TITLE "37:cjc023_6128"
    INDEX 01 02:14:33
  TRACK 139 AUDIO
    TITLE "0:"
    INDEX 01 02:15:58
  TRACK 140 AUDIO
    TITLE "36:cjc023_6129"
    INDEX 01 02:16:07
  TRACK 141 AUDIO
    TITLE "0:"
    INDEX 01 02:17:30
  TRACK 142 AUDIO
    TITLE "37:cjc023_6130"
    INDEX 01 02:18:19
  TRACK 143 AUDIO
    TITLE "0:"
    INDEX 01 02:19:70
  TRACK 144 AUDIO
    TITLE "36:cjc023_6131"
    INDEX 01 02:20:20
  TRACK 145 AUDIO
    TITLE "0:"
    INDEX 01 02:21:30
  TRACK 146 AUDIO
    TITLE "37:cjc023_6132"
    INDEX 01 02:22:13
  TRACK 147 AUDIO
    TITLE "0:"
    INDEX 01 02:23:56
  TRACK 148 AUDIO
    TITLE "36:cjc023_6133"
    INDEX 01 02:24:04
  TRACK 149 AUDIO
    TITLE "0:"
    INDEX 01 02:25:55
  TRACK 150 AUDIO
    TITLE "37:cjc023_6134"
    INDEX 01 02:26:39
  TRACK 151 AUDIO
    TITLE "0:"
    INDEX 01 02:28:10
  TRACK 152 AUDIO
    TITLE "36:cjc023_6135"
    INDEX 01 02:28:32
  TRACK 153 AUDIO
    TITLE "0:"
    INDEX 01 02:29:62
  TRACK 154 AUDIO
    TITLE "37:cjc023_6136"
    INDEX 01 02:30:46
  TRACK 155 AUDIO
    TITLE "0:"
    INDEX 01 02:32:18
  TRACK 156 AUDIO
    TITLE "36:cjc023_6137"
    INDEX 01 02:32:41
  TRACK 157 AUDIO
    TITLE "0:"
    INDEX 01 02:33:72
  TRACK 158 AUDIO
    TITLE "37:cjc023_6138"
    INDEX 01 02:34:56
  TRACK 159 AUDIO
    TITLE "0:"
    INDEX 01 02:35:69
  TRACK 160 AUDIO
    TITLE "36:cjc023_6139"
    INDEX 01 02:36:19
  TRACK 161 AUDIO
    TITLE "0:"
    INDEX 01 02:37:54
  TRACK 162 AUDIO
    TITLE "37:cjc023_6140"
    INDEX 01 02:38:38
  TRACK 163 AUDIO
    TITLE "0:"
    INDEX 01 02:39:53
  TRACK 164 AUDIO
    TITLE "36:cjc023_6141"
    INDEX 01 02:40:01
  TRACK 165 AUDIO
    TITLE "0:"
    INDEX 01 02:41:11
  TRACK 166 AUDIO
    TITLE "37:cjc023_6142"
    INDEX 01 02:41:71
  TRACK 167 AUDIO
    TITLE "0:"
    INDEX 01 02:43:33
  TRACK 168 AUDIO
    TITLE "36:cjc023_6143"
    INDEX 01 02:43:55
  TRACK 169 AUDIO
    TITLE "0:"
    INDEX 01 02:45:14
  TRACK 170 AUDIO
    TITLE "37:cjc023_6144"
    INDEX 01 02:45:73
  TRACK 171 AUDIO
    TITLE "0:"
    INDEX 01 02:47:13
  TRACK 172 AUDIO
    TITLE "36:cjc023_6145"
    INDEX 01 02:47:39
  TRACK 173 AUDIO
    TITLE "0:"
    INDEX 01 02:50:06
  TRACK 174 AUDIO
    TITLE "37:cjc023_6146"
    INDEX 01 02:50:68
  TRACK 175 AUDIO
    TITLE "0:"
    INDEX 01 02:51:74
  TRACK 176 AUDIO
    TITLE "36:cjc023_6147"
    INDEX 01 02:52:24
  TRACK 177 AUDIO
    TITLE "0:"
    INDEX 01 02:53:41
  TRACK 178 AUDIO
    TITLE "37:cjc023_6148"
    INDEX 01 02:54:23
  TRACK 179 AUDIO
    TITLE "0:"
    INDEX 01 02:56:00
  TRACK 180 AUDIO
    TITLE "36:cjc023_6149"
    INDEX 01 02:56:24
  TRACK 181 AUDIO
    TITLE "0:"
    INDEX 01 02:57:49
  TRACK 182 AUDIO
    TITLE "37:cjc023_6150"
    INDEX 01 02:58:31
  TRACK 183 AUDIO
    TITLE "0:"
    INDEX 01 02:59:62
  TRACK 184 AUDIO
    TITLE "36:cjc023_6151"
    INDEX 01 03:00:06
  TRACK 185 AUDIO
    TITLE "0:"
    INDEX 01 03:01:27
  TRACK 186 AUDIO
    TITLE "37:cjc023_6152"
    INDEX 01 03:02:11
  TRACK 187 AUDIO
    TITLE "0:"
    INDEX 01 03:03:40
  TRACK 188 AUDIO
    TITLE "36:cjc023_6153"
    INDEX 01 03:03:63
  TRACK 189 AUDIO
    TITLE "0:"
    INDEX 01 03:05:03
  TRACK 190 AUDIO
    TITLE "37:cjc023_6154"
    INDEX 01 03:05:66
  TRACK 191 AUDIO
    TITLE "0:"
    INDEX 01 03:07:10
  TRACK 192 AUDIO
    TITLE "36:cjc023_6155"
    INDEX 01 03:07:32
  TRACK 193 AUDIO
    TITLE "0:"
    INDEX 01 03:08:41
  TRACK 194 AUDIO
    TITLE "37:cjc023_6156"
    INDEX 01 03:09:27
  TRACK 195 AUDIO
    TITLE "0:"
    INDEX 01 03:10:42
  TRACK 196 AUDIO
    TITLE "36:cjc023_6157"
    INDEX 01 03:10:65
  TRACK 197 AUDIO
    TITLE "0:"
    INDEX 01 03:12:29
  TRACK 198 AUDIO
    TITLE "37:cjc023_6158"
    INDEX 01 03:13:13
  TRACK 199 AUDIO
    TITLE "0:"
    INDEX 01 03:14:40
  TRACK 200 AUDIO
    TITLE "36:cjc023_6159"
    INDEX 01 03:14:63
  TRACK 201 AUDIO
    TITLE "0:"
    INDEX 01 03:15:64
  TRACK 202 AUDIO
    TITLE "37:cjc023_6160"
    INDEX 01 03:16:48
  TRACK 203 AUDIO
    TITLE "0:"
    INDEX 01 03:18:00
  TRACK 204 AUDIO
    TITLE "36:cjc023_6161"
    INDEX 01 03:18:18
  TRACK 205 AUDIO
    TITLE "0:"
    INDEX 01 03:19:37
  TRACK 206 AUDIO
    TITLE "37:cjc023_6162"
    INDEX 01 03:20:28
  TRACK 207 AUDIO
    TITLE "0:"
    INDEX 01 03:21:57
  TRACK 208 AUDIO
    TITLE "36:cjc023_6163"
    INDEX 01 03:22:00
  TRACK 209 AUDIO
    TITLE "0:"
    INDEX 01 03:23:21
  TRACK 210 AUDIO
    TITLE "37:cjc023_6164"
    INDEX 01 03:24:11
  TRACK 211 AUDIO
    TITLE "0:"
    INDEX 01 03:25:39
  TRACK 212 AUDIO
    TITLE "36:cjc023_6165"
    INDEX 01 03:25:61
  TRACK 213 AUDIO
    TITLE "0:"
    INDEX 01 03:27:25
  TRACK 214 AUDIO
    TITLE "37:cjc023_6166"
    INDEX 01 03:28:08
  TRACK 215 AUDIO
    TITLE "0:"
    INDEX 01 03:29:72
  TRACK 216 AUDIO
    TITLE "36:cjc023_6167"
    INDEX 01 03:30:19
  TRACK 217 AUDIO
    TITLE "0:"
    INDEX 01 03:31:60
  TRACK 218 AUDIO
    TITLE "37:cjc023_6168"
    INDEX 01 03:32:43
  TRACK 219 AUDIO
    TITLE "0:"
    INDEX 01 03:34:09
  TRACK 220 AUDIO
    TITLE "36:cjc023_6169"
    INDEX 01 03:34:36
  TRACK 221 AUDIO
    TITLE "0:"
    INDEX 01 03:35:71
  TRACK 222 AUDIO
    TITLE "37:cjc023_6170"
    INDEX 01 03:36:57
  TRACK 223 AUDIO
    TITLE "0:"
    INDEX 01 03:38:15
  TRACK 224 AUDIO
    TITLE "36:cjc023_6171"
    INDEX 01 03:38:36
  TRACK 225 AUDIO
    TITLE "0:"
    INDEX 01 03:39:59
  TRACK 226 AUDIO
    TITLE "37:cjc023_6172"
    INDEX 01 03:40:43
  TRACK 227 AUDIO
    TITLE "0:"
    INDEX 01 03:41:68
  TRACK 228 AUDIO
    TITLE "36:cjc023_6173"
    INDEX 01 03:42:14
  TRACK 229 AUDIO
    TITLE "0:"
    INDEX 01 03:43:53
  TRACK 230 AUDIO
    TITLE "37:cjc023_6174"
    INDEX 01 03:44:39
  TRACK 231 AUDIO
    TITLE "0:"
    INDEX 01 03:46:08
  TRACK 232 AUDIO
    TITLE "36:cjc023_6175"
    INDEX 01 03:46:32
  TRACK 233 AUDIO
    TITLE "0:"
    INDEX 01 03:47:63
  TRACK 234 AUDIO
    TITLE "37:cjc023_6176"
    INDEX 01 03:48:46
  TRACK 235 AUDIO
    TITLE "0:"
    INDEX 01 03:51:02
  TRACK 236 AUDIO
    TITLE "36:cjc023_6177"
    INDEX 01 03:51:25
  TRACK 237 AUDIO
    TITLE "0:"
    INDEX 01 03:52:44
  TRACK 238 AUDIO
    TITLE "37:cjc023_6178"
    INDEX 01 03:53:30
  TRACK 239 AUDIO
    TITLE "0:"
    INDEX 01 03:54:61
  TRACK 240 AUDIO
    TITLE "36:cjc023_6179"
    INDEX 01 03:55:09
  TRACK 241 AUDIO
    TITLE "0:"
    INDEX 01 03:56:24
  TRACK 242 AUDIO
    TITLE "37:cjc023_6180"
    INDEX 01 03:57:12
  TRACK 243 AUDIO
    TITLE "0:"
    INDEX 01 03:58:35
  TRACK 244 AUDIO
    TITLE "36:cjc023_6181"
    INDEX 01 03:58:56
  TRACK 245 AUDIO
    TITLE "0:"
    INDEX 01 04:00:02
  TRACK 246 AUDIO
    TITLE "37:cjc023_6182"
    INDEX 01 04:00:61
  TRACK 247 AUDIO
    TITLE "0:"
    INDEX 01 04:02:09
  TRACK 248 AUDIO
    TITLE "36:cjc023_6183"
    INDEX 01 04:02:37
  TRACK 249 AUDIO
    TITLE "0:"
    INDEX 01 04:03:58
  TRACK 250 AUDIO
    TITLE "37:cjc023_6184"
    INDEX 01 04:04:45
  TRACK 251 AUDIO
    TITLE "0:"
    INDEX 01 04:05:72
  TRACK 252 AUDIO
    TITLE "36:cjc023_6185"
    INDEX 01 04:06:23
  TRACK 253 AUDIO
    TITLE "0:"
    INDEX 01 04:07:46
  TRACK 254 AUDIO
    TITLE "37:cjc023_6186"
    INDEX 01 04:08:35
  TRACK 255 AUDIO
    TITLE "0:"
    INDEX 01 04:09:48
  TRACK 256 AUDIO
    TITLE "36:cjc023_6187"
    INDEX 01 04:09:70
  TRACK 257 AUDIO
    TITLE "0:"
    INDEX 01 04:10:73
  TRACK 258 AUDIO
    TITLE "37:cjc023_6188"
    INDEX 01 04:11:57
  TRACK 259 AUDIO
    TITLE "0:"
    INDEX 01 04:12:68
  TRACK 260 AUDIO
    TITLE "36:cjc023_6189"
    INDEX 01 04:13:17
  TRACK 261 AUDIO
    TITLE "0:"
    INDEX 01 04:14:36
  TRACK 262 AUDIO
    TITLE "37:cjc023_6190"
    INDEX 01 04:15:22
  TRACK 263 AUDIO
    TITLE "0:"
    INDEX 01 04:16:54
  TRACK 264 AUDIO
    TITLE "36:cjc023_6191"
    INDEX 01 04:16:74
  TRACK 265 AUDIO
    TITLE "0:"
    INDEX 01 04:18:10
  TRACK 266 AUDIO
    TITLE "37:cjc023_6192"
    INDEX 01 04:18:69
  TRACK 267 AUDIO
    TITLE "0:"
    INDEX 01 04:20:07
  TRACK 268 AUDIO
    TITLE "36:cjc023_6193"
    INDEX 01 04:20:31
  TRACK 269 AUDIO
    TITLE "0:"
    INDEX 01 04:21:61
  TRACK 270 AUDIO
    TITLE "37:cjc023_6194"
    INDEX 01 04:22:47
  TRACK 271 AUDIO
    TITLE "0:"
    INDEX 01 04:23:35
  TRACK 272 AUDIO
    TITLE "36:cjc023_6195"
    INDEX 01 04:23:60
  TRACK 273 AUDIO
    TITLE "0:"
    INDEX 01 04:25:10
  TRACK 274 AUDIO
    TITLE "37:cjc023_6196"
    INDEX 01 04:25:71
  TRACK 275 AUDIO
    TITLE "0:"
    INDEX 01 04:27:62
  TRACK 276 AUDIO
    TITLE "36:cjc023_6197"
    INDEX 01 04:28:09
  TRACK 277 AUDIO
    TITLE "0:"
    INDEX 01 04:29:51
  TRACK 278 AUDIO
    TITLE "37:cjc023_6198"
    INDEX 01 04:30:37
  TRACK 279 AUDIO
    TITLE "0:"
    INDEX 01 04:31:42
  TRACK 280 AUDIO
    TITLE "36:cjc023_6199"
    INDEX 01 04:31:64
  TRACK 281 AUDIO
    TITLE "0:"
    INDEX 01 04:33:16
  TRACK 282 AUDIO
    TITLE "37:cjc023_6200"
    INDEX 01 04:34:01
  TRACK 283 AUDIO
    TITLE "0:"
    INDEX 01 04:35:24
  TRACK 284 AUDIO
    TITLE "36:cjc023_6201"
    INDEX 01 04:35:46
  TRACK 285 AUDIO
    TITLE "0:"
    INDEX 01 04:37:15
  TRACK 286 AUDIO
    TITLE "37:cjc023_6202"
    INDEX 01 04:37:74
  TRACK 287 AUDIO
    TITLE "0:"
    INDEX 01 04:39:20
  TRACK 288 AUDIO
    TITLE "36:cjc023_6203"
    INDEX 01 04:39:44
  TRACK 289 AUDIO
    TITLE "0:"
    INDEX 01 04:40:61
  TRACK 290 AUDIO
    TITLE "37:cjc023_6204"
    INDEX 01 04:41:48
  TRACK 291 AUDIO
    TITLE "0:"
    INDEX 01 04:43:08
  TRACK 292 AUDIO
    TITLE "36:cjc023_6205"
    INDEX 01 04:43:30
  TRACK 293 AUDIO
    TITLE "0:"
    INDEX 01 04:44:55
  TRACK 294 AUDIO
    TITLE "37:cjc023_6206"
    INDEX 01 04:45:36
  TRACK 295 AUDIO
    TITLE "0:"
    INDEX 01 04:46:71
  TRACK 296 AUDIO
    TITLE "36:cjc023_6207"
    INDEX 01 04:47:18
  TRACK 297 AUDIO
    TITLE "0:"
    INDEX 01 04:48:47
  TRACK 298 AUDIO
    TITLE "37:cjc023_6208"
    INDEX 01 04:49:32
  TRACK 299 AUDIO
    TITLE "0:"
    INDEX 01 04:50:57
  TRACK 300 AUDIO
    TITLE "36:cjc023_6209"
    INDEX 01 04:51:08
  TRACK 301 AUDIO
    TITLE "0:"
    INDEX 01 04:52:29
  TRACK 302 AUDIO
    TITLE "37:cjc023_6210"
    INDEX 01 04:53:16
  TRACK 303 AUDIO
    TITLE "0:"
    INDEX 01 04:54:45
  TRACK 304 AUDIO
    TITLE "36:cjc023_6211"
    INDEX 01 04:54:71
  TRACK 305 AUDIO
    TITLE "0:"
    INDEX 01 04:56:09
  TRACK 306 AUDIO
    TITLE "37:cjc023_6212"
    INDEX 01 04:56:68
  TRACK 307 AUDIO
    TITLE "0:"
    INDEX 01 04:57:73
  TRACK 308 AUDIO
    TITLE "36:cjc023_6213"
    INDEX 01 04:58:21
  TRACK 309 AUDIO
    TITLE "0:"
    INDEX 01 04:59:40
  TRACK 310 AUDIO
    TITLE "37:cjc023_6214"
    INDEX 01 05:00:28
  TRACK 311 AUDIO
    TITLE "0:"
    INDEX 01 05:01:55
  TRACK 312 AUDIO
    TITLE "36:cjc023_6215"
    INDEX 01 05:02:09
  TRACK 313 AUDIO
    TITLE "0:"
    INDEX 01 05:03:23
  TRACK 314 AUDIO
    TITLE "37:cjc023_6216"
    INDEX 01 05:04:08
  TRACK 315 AUDIO
    TITLE "0:"
    INDEX 01 05:05:41
  TRACK 316 AUDIO
    TITLE "36:cjc023_6217"
    INDEX 01 05:05:65
  TRACK 317 AUDIO
    TITLE "0:"
    INDEX 01 05:07:16
  TRACK 318 AUDIO
    TITLE "37:cjc023_6218"
    INDEX 01 05:08:00
  TRACK 319 AUDIO
    TITLE "0:"
    INDEX 01 05:09:27
  TRACK 320 AUDIO
    TITLE "36:cjc023_6219"
    INDEX 01 05:09:51
  TRACK 321 AUDIO
    TITLE "0:"
    INDEX 01 05:11:03
  TRACK 322 AUDIO
    TITLE "37:cjc023_6220"
    INDEX 01 05:11:67
  TRACK 323 AUDIO
    TITLE "0:"
    INDEX 01 05:13:03
  TRACK 324 AUDIO
    TITLE "36:cjc023_6221"
    INDEX 01 05:13:27
  TRACK 325 AUDIO
    TITLE "0:"
    INDEX 01 05:14:50
  TRACK 326 AUDIO
    TITLE "37:cjc023_6222"
    INDEX 01 05:15:36
  TRACK 327 AUDIO
    TITLE "0:"
    INDEX 01 05:16:53
  TRACK 328 AUDIO
    TITLE "36:cjc023_6223"
    INDEX 01 05:17:03
  TRACK 329 AUDIO
    TITLE "0:"
    INDEX 01 05:18:34
  TRACK 330 AUDIO
    TITLE "37:cjc023_6224"
    INDEX 01 05:19:18
  TRACK 331 AUDIO
    TITLE "0:"
    INDEX 01 05:20:47
  TRACK 332 AUDIO
    TITLE "36:cjc023_6225"
    INDEX 01 05:20:72
  TRACK 333 AUDIO
    TITLE "0:"
    INDEX 01 05:21:73
  TRACK 334 AUDIO
    TITLE "37:cjc023_6226"
    INDEX 01 05:22:55
  TRACK 335 AUDIO
    TITLE "0:"
    INDEX 01 05:24:17
  TRACK 336 AUDIO
    TITLE "36:cjc023_6227"
    INDEX 01 05:24:42
  TRACK 337 AUDIO
    TITLE "0:"
    INDEX 01 05:25:59
  TRACK 338 AUDIO
    TITLE "37:cjc023_6228"
    INDEX 01 05:26:45
  TRACK 339 AUDIO
    TITLE "0:"
    INDEX 01 05:27:58
  TRACK 340 AUDIO
    TITLE "36:cjc023_6229"
    INDEX 01 05:28:05
  TRACK 341 AUDIO
    TITLE "0:"
    INDEX 01 05:29:04
  TRACK 342 AUDIO
    TITLE "37:cjc023_6230"
    INDEX 01 05:29:65
  TRACK 343 AUDIO
    TITLE "0:"
    INDEX 01 05:31:15
  TRACK 344 AUDIO
    TITLE "36:cjc023_6231"
    INDEX 01 05:31:39
  TRACK 345 AUDIO
    TITLE "0:"
    INDEX 01 05:33:04
  TRACK 346 AUDIO
    TITLE "37:cjc023_6232"
    INDEX 01 05:33:61
  TRACK 347 AUDIO
    TITLE "0:"
    INDEX 01 05:35:01
  TRACK 348 AUDIO
    TITLE "36:cjc023_6233"
    INDEX 01 05:35:28
  TRACK 349 AUDIO
    TITLE "0:"
    INDEX 01 05:36:34
  TRACK 350 AUDIO
    TITLE "37:cjc023_6234"
    INDEX 01 05:37:21
  TRACK 351 AUDIO
    TITLE "0:"
    INDEX 01 05:38:44
  TRACK 352 AUDIO
    TITLE "36:cjc023_6235"
    INDEX 01 05:38:66
  TRACK 353 AUDIO
    TITLE "0:"
    INDEX 01 05:40:24
  TRACK 354 AUDIO
    TITLE "37:cjc023_6236"
    INDEX 01 05:41:09
  TRACK 355 AUDIO
    TITLE "0:"
    INDEX 01 05:42:13
  TRACK 356 AUDIO
    TITLE "36:cjc023_6237"
    INDEX 01 05:42:38
  TRACK 357 AUDIO
    TITLE "0:"
    INDEX 01 05:43:48
  TRACK 358 AUDIO
    TITLE "37:cjc023_6238"
    INDEX 01 05:44:35
  TRACK 359 AUDIO
    TITLE "0:"
    INDEX 01 05:45:54
  TRACK 360 AUDIO
    TITLE "36:cjc023_6239"
    INDEX 01 05:46:03
  TRACK 361 AUDIO
    TITLE "0:"
    INDEX 01 05:47:24
  TRACK 362 AUDIO
    TITLE "37:cjc023_6240"
    INDEX 01 05:48:08
  TRACK 363 AUDIO
    TITLE "0:"
    INDEX 01 05:49:36
  TRACK 364 AUDIO
    TITLE "36:cjc023_6241"
    INDEX 01 05:49:60
  TRACK 365 AUDIO
    TITLE "0:"
    INDEX 01 05:51:02
  TRACK 366 AUDIO
    TITLE "37:cjc023_6242"
    INDEX 01 05:51:59
  TRACK 367 AUDIO
    TITLE "0:"
    INDEX 01 05:53:17
  TRACK 368 AUDIO
    TITLE "36:cjc023_6243"
    INDEX 01 05:53:38
  TRACK 369 AUDIO
    TITLE "0:"
    INDEX 01 05:54:69
  TRACK 370 AUDIO
    TITLE "37:cjc023_6244"
    INDEX 01 05:55:51
  TRACK 371 AUDIO
    TITLE "0:"
    INDEX 01 05:57:36
  TRACK 372 AUDIO
    TITLE "36:cjc023_6245"
    INDEX 01 05:57:56
  TRACK 373 AUDIO
    TITLE "0:"
    INDEX 01 05:59:07
  TRACK 374 AUDIO
    TITLE "37:cjc023_6246"
    INDEX 01 05:59:66
  TRACK 375 AUDIO
    TITLE "0:"
    INDEX 01 06:01:24
  TRACK 376 AUDIO
    TITLE "36:cjc023_6247"
    INDEX 01 06:01:47
  TRACK 377 AUDIO
    TITLE "0:"
    INDEX 01 06:03:05
